<?xml version="1.0" encoding="UTF-8"?>
<svg id="Layer_2" data-name="Layer 2" xmlns="http://www.w3.org/2000/svg" viewBox="0 0 90.83 39.45">
  <defs>
    <style>
      .cls-1 {
        fill: #75a773;
      }

      .cls-2 {
        fill: #fff;
      }

      .cls-3 {
        fill: #c08d4f;
      }
    </style>
  </defs>
  <g id="Layer_1-2" data-name="Layer 1">
    <g>
      <path class="cls-3" d="M13.64,3.22c.48.53,1.5.53,2.26.78-.09-1.67-1.93-3.43-2.26-.78Z"/>
      <path class="cls-1" d="M86.12,31.92c-.35-1.57-1.96-2.33-3.65-2.26.82,1.1,1.62,2.67,3.65,2.26Z"/>
      <path class="cls-1" d="M38.79,26.1c.79-.34,3.79-1.86,3.83-2.7.05-1.01-2.05-2.18-3.13-2.61-2.51-1-5.06,0-6.61,1.05-.92.62-1.4.97-2.09,1.74-1.05,1.18-1.97,2.83-2.52,4,3.88.6,7.52-.17,10.53-1.48Z"/>
      <path class="cls-3" d="M.59,16.36c.34-1.26.98-2.56,1.48-3.74.55-1.29,1.12-2.63,2-3.22-.34,1.49-2.08,3.76-2.35,6.44-.22,2.26.15,4.56,1.04,5.83.27.38.89.96,1.39.96,1.42,0,1.17-2.14,2.09-2.52-.19,1.36-1.08,4.95-2.35,5.31-.42.12-.76-.06-1.22-.17-.45.15-3.42,7.05-.96,8.96,2.2,1.7,5.15-1.06,6.44-2.09.65-.54.8-.76,1.3-1.31,1.99-2.1,5.21-5.32,8.53-6.27.94-.27,2.04-.48,3.05-.44,2.86.12,3.56,2.02,5.66,3.04,1.81-2.65,3.67-6.2,6.7-8.18,1.04-.68,2.83-1.59,4.52-1.39,2.61.3,4.78,1.27,5.92,3.04.35.7.12,2.36-.07,2.96-.25.76-.59,1.43-.88,2-.53,1.02-1.59,1.61-2.17,2.18,2.39-.39,4.86-1.47,6.87-2.52.69-.5,1.24-1.14,2.26-1.31-.11,2.68,2.05,4.51,4.87,4.26,3.58-.32,7.3-2.96,9.83-3.92-2.81-.38-5.58-1.26-8.27-1.48-.25.27-.28.76-.43,1.13-1.93-.1-3.77-.29-5.48-.61-.04-.91.61-1.58.96-2.26.15-.3.19-.56.35-.7.59-.5,4.24-1.04,5.31-.87,1.32.21,2.74.81,4.26,1.13,1.44.31,2.97.68,4.52.87,1.59.2,3.27.14,4.87.35,2.15.27,4.06.55,6.18.78-.03.88-.93,1.61-1.13,2.61-2.64-.21-5.5-.45-7.66.35-.57,6.37,8.53,3.75,11.75,2-.62-7.38-1.46-15.01-1.83-22.97-.07-1.48.16-2.6-.52-3.65.11-.11.2-.22.29-.35h-10.37c.19.78-.38,1.12-.8,1.83-.71,1.2-.87,1.88-2.09,2.61-.8.48-2.11,1.24-2.96.7.24-.74,1.15-.94,1.74-1.31.64-.4,1.21-.85,1.74-1.31-1.52-.11-3.47-.33-4.87.17-.41.15-.71.58-1.13.43-.33-.79-.02-1.61.7-2.61.32-.22.68-.39,1.08-.52h-5.63c-.07.27-.16.52-.24.79-5.26,2.02-9.98,4.58-14.44,7.4,0-.9.31-1.55.96-2,.91-.63,2.12-1.22,3.22-1.83,1.07-.59,2.21-1.19,3.31-1.74,1.99-1,3.92-1.82,5.7-2.61h-11.7c-.07.78-.56,1.51-.88,2.09-9.72,3.59-18.63,8-27.58,12.36.04-.45,0-1.18,0-2,1.89-1.7,4.39-2.55,6.7-3.57,2.32-1.03,4.64-2.11,6.96-3.22,4.3-2.05,8.74-3.95,13.26-5.66h-15.77c-.13.22-.25.44-.27.7-.1,1.05.55,2.1,1.22,2.7.89-.21,1.03-1.17,1.39-1.91.55,1.29-.58,2.89-1.65,3.39-1.68-.55-1.91-3.08-1.31-4.88h-8.36c.71.87,1.1,2.2.96,3.57.93.15,1.23,1.41.61,2.18-.32-.11-.42-.45-.78-.52-1.33,2.51-3.59,4.02-5.74,5.74-1.64,1.31-3.62,2.91-5.91,3.74.57-.97,1.59-1.56,2.44-2.26,2.5-2.08,5.31-4,7.66-6.35.19-.45.56-.72.78-1.13-1.07-.5-2.6-.28-2.78-1.57-.08-.55.48-2.47,1.3-3.4h-7.01c-.53,0-1.05.06-1.55.18.11.24-.15.67-.14.96.87.66,2.18,1.06,2.52,2.17.64,2.08-.68,4.11-2.7,4-3.16-.16-1.37-5.02-.33-6.97C2.09,1.89,0,4.59,0,7.75v21.76c.48-1.82,1.29-3.53,2.07-4.62-1.48-1.75-2.37-5.27-1.48-8.53ZM74.11,19.83c-.84,0-1.43-1.15-1.57-2-.32-2.06.87-4.83,1.91-5.57.3,1.15-1.36,2.4-1.04,4.35.1.6.55,1.69,1.13,1.74,1.1.09.72-1.55,1.57-1.91.39,1.15-1.06,3.4-2,3.39ZM65.84,14.09c2.68-2.09,5.3-4.36,7.65-6.79-.89-.58-2.38-.48-2.61-1.57-.34-1.59,1.26-3.67,2.87-3.48.54.56.79,1.13.87,2.09.04.49-.2,1.18-.09,1.57.22.78,1.21.74,1.48,1.39-.06.6-.12,1.22-.52,1.48-.4-.41-.75-.87-1.3-1.13-1.77,2.82-4.64,4.67-7.57,6.53-.46.29-.97.94-1.57.61.08-.39.52-.49.78-.7ZM61.06,12.09c1.24.47,2.46.96,3.31,1.83-.21,1.01-1.18,1.25-1.22,2.44-1.11-.63-2.43-1.05-3.31-1.91.33-.86.76-1.62,1.22-2.35ZM54.79,5.39c.1-.01.16.02.17.09-.28,1.03-1.19,2.75-.69,4.35.18.58.71,1.62,1.39,1.48.71-.14.39-1.29,1.13-1.57-.08,1.01-.55,3.02-1.57,3.13-1.15.12-2.01-1.97-2-3.31,0-1.85.78-3.28,1.56-4.18ZM46.18,9.92c1.15.5,1.95,1.36,2.96,2,.03.62-.27,1.31-.61,1.83-.11.16-.65.36-.61.78.06.54,1.07.85,1.57,1.13.62.36,1.15.66,1.57,1.04-.32.93-1,1.5-1.13,2.61-1.39-.64-2.67-1.39-3.74-2.35.3-.97.75-1.8,1.3-2.52-.79-.74-1.78-1.3-2.52-2.09.3-.92.77-1.67,1.22-2.44ZM36.17,7.4h.26c-.55,1.98-.89,5.34,1.22,5.83.67-.28.51-1.41,1.13-1.74-.02,1.61-.4,3.25-1.56,3.31-2.59-.79-2.4-5.36-1.05-7.39ZM23.3,12.1c2.03.99,3.53,2.5,4.52,4.52.44-1.11-.48-3.81.17-5.22.46-.98,1.9-1.43,2.61-.26.14.69.09,1.63-.26,2.09-.36-.58-.9-1.41-1.65-1.3-.44,2.11.35,5.23-.78,6.79-.68-.45-.99-1.56-1.65-2.35-.36-.42-.81-.73-1.13-1.13-.76.59-1.86-.44-2.35-.96.07-.82.29-1.51.52-2.18ZM18.69,14.45h.44c-.77,1.48-1.11,4.27.61,4.96.72-.21.54-1.31,1.13-1.65.08,1.07-.73,3.06-1.48,3.13-.87.08-1.65-1.34-1.74-2.44-.13-1.63.56-3.09,1.04-4ZM8.51,20.89c.11-1.81.89-3.36,1.57-4.44.1-.01.15.02.17.09-.09,1.06-1.11,2.76-.87,4.44.13.93.75,2.03,1.39,2.09,1.04.09.9-1.03,1.57-1.48.12,1.24-.4,1.81-1.04,2.44-.31.3-.47.58-.7.61-1.33.15-2.19-2.01-2.09-3.74Z"/>
      <path class="cls-3" d="M71.67,4.7c.48.62,1.47.73,2.26,1.04.17-1.58-1.73-2.83-2.26-1.04Z"/>
      <path class="cls-1" d="M90.47,5.53c0,.12-.03.25-.1.39-.8-.15-1.08-.83-1.65-1.22-.2,1.59.01,3.5.17,5.31.2,2.19.33,4.44.52,6.61.39,4.53,1.08,9.02-.96,12.88-.46-.36-.26-1.21-.26-1.83,0-1-.17-3.29-.17-3.57.31-3.05-.63-6.98-.78-10.53-.12-2.74-.36-4.86-.61-7.74-.06-.69-.3-1.34-.35-2-.03-.39-.49-2.11-.53-2.91-.66-.2-1.35-.31-2.07-.31h-3.72c.51,1.22.99,2.47,1.54,3.65.62,1.04.76,1.42.26,2.09-.81-.38-1.16-1.22-1.83-1.74.09,7.16,1.24,15.05,1.83,22.53,2.23-.69,5.19.24,5.74,2.09.55,1.84-1.02,5.24-2.52,5.48-2.88.47-4.04-2.58-4.79-4.52-1.35.61-3.22,1.36-5.13,1.91-.8.23-1.59.65-2.44.7-3.9.2-6.83-2.77-5.48-7.05-2.64.97-5.55,2.84-8.44,4-1.63.66-3.43,1.6-5.83,1.31-2.21-.27-3.47-1.93-4.09-4-2.29,1.45-4.94,2.6-8.09,3.48-1.12.31-2.43.68-3.48.78-.44.04-.89-.14-1.31-.09-2.98.39-6.26.33-9.14-.69-.6.42-.53,1.5-1.3,1.74-.48-.68.23-1.45.26-2.18-2.05-1.4-3.72-3.84-7.05-2.96-2.12.56-3.79,1.88-5.39,3.31-1.99,1.78-3.49,3.55-5.74,5.22-1.28.95-3.63,2.52-5.53,1.59,1.3,1.34,3.12,2.18,5.12,2.18h76.54c3.93,0,7.15-3.22,7.15-7.15V7.75c0-.78-.13-1.53-.36-2.23ZM19.47,37.24c-2.86-.67-2.12-5.52-.52-7.05.1-.01.16.02.17.09.11.87-.72,1.38-.87,2.44-.19,1.36.61,3,1.57,2.87.71-.09.74-1.13,1.22-1.65.54,1.17-.8,2.58-1.57,3.31ZM34.44,33.15c.74-.07,1.11.23,1.22.78-.32.38-.82-.03-1.13-.17-.48.33-.37,1.26-1.04,1.39.16-.83.66-1.31.96-2ZM37.74,37.33c-.83.33-1.87.49-2.78.7-.17-.12-.31-.27-.43-.43-.86.22-1.74.76-2.7.61-.13-.19-.38-.26-.35-.61-.73.26-1.7.42-2.09-.26,0-1.13.73-1.53,1.3-2.09.57,0,1.07.37.78.96-.39.05-.52-.17-.78-.26-.29.29-.7.46-.7,1.04,1.07.49,2.14-.44,2.78-.96-.02-.39-.4-.42-.52-.7,0-.27.11-.42.17-.61,1.71.57.43,1.95-.26,2.7.48.38,1.39-.21,1.91-.35.36-1.21.94-2.19,2.35-2.35.09.08.03.32.26.26-.04.22-.16.36-.26.52-.23.23-.33-.11-.52-.17-.54.27-.99.64-1.31,1.13.28.15.68-.39,1.04,0,.09.47-.29.46-.35.78.49.02,1.47-.21,2-.44-1.01-.82.67-2.65,1.48-1.65,0,.14,0,.29,0,.43-.46.27-.85-.32-1.22.09.28,1.17,1.53.42,2.18.09-.22.84-1.22,1.25-2,1.57ZM49.23,35.84c-.75,1.36-2.23,1.06-2.78-.35-.63-1.57.3-3.79,1.04-4.61.31.07.42-.2.61,0-.1.77-.56,1.18-.96,1.65-.2,1.07.21,2.68,1.04,2.78.79.1.94-.82,1.31-1.48.34.29.05,1.44-.26,2ZM63.41,37.93c-1.52.18-2.68-.51-2.18-2,.42-1.23,1.54-2.29,2.26-3.22-1.33-.55-2.56.43-3.13,1.22.08-2.5,1.68-2.98,4-2.87.36,1.22-.45,2.19-1.13,3.04-.31.4-1.15,1.11-1.13,1.48.04,1.03,1.9.88,2.87.61.69-.2,1.56-.63,2.09-1.04.34-.26.55-.71.96-.7-.36,1.63-2.62,3.25-4.61,3.48Z"/>
      <path class="cls-3" d="M7.46,5.4c-.59-1.04-1.5-1.75-2.79-2.09-.34.62-.52,1.56-.35,2.44.66,1.06,2.7.7,3.13-.35Z"/>
      <path class="cls-2" d="M86.63,5.82c.25,2.88.49,5.01.61,7.74.16,3.55,1.1,7.48.78,10.53,0,.28.18,2.56.17,3.57,0,.61-.2,1.46.26,1.83,2.04-3.85,1.35-8.35.96-12.88-.19-2.17-.33-4.42-.52-6.61-.16-1.81-.38-3.71-.17-5.31.57.39.85,1.07,1.65,1.22.06-.13.09-.26.1-.39-.73-2.2-2.49-3.93-4.71-4.61.03.79.5,2.51.53,2.91.05.66.29,1.31.35,2Z"/>
      <path class="cls-2" d="M25.3,5.48c1.08-.51,2.2-2.1,1.65-3.39-.36.74-.5,1.7-1.39,1.91-.67-.6-1.32-1.65-1.22-2.7.03-.26.14-.48.27-.7h-.62c-.6,1.8-.37,4.32,1.31,4.88Z"/>
      <path class="cls-2" d="M55.23,0h-.26c-.43.2-.89.4-1.34.61h1.5c.05-.19.09-.38.11-.61Z"/>
      <path class="cls-2" d="M44.61,4.96c-1.1.61-2.31,1.19-3.22,1.83-.65.45-.96,1.1-.96,2,4.46-2.82,9.18-5.38,14.44-7.4.08-.26.17-.52.24-.79h-1.5c-1.79.79-3.71,1.61-5.7,2.61-1.1.55-2.24,1.15-3.31,1.74Z"/>
      <path class="cls-2" d="M15.12.09c-.34-.04-.67.18-.97.51h1.48c-.16-.19-.33-.37-.52-.51Z"/>
      <path class="cls-2" d="M12.86,4.01c.19,1.29,1.71,1.07,2.78,1.57-.23.41-.6.68-.78,1.13-2.35,2.35-5.16,4.27-7.66,6.35-.84.7-1.86,1.29-2.44,2.26,2.3-.83,4.27-2.43,5.91-3.74,2.16-1.72,4.41-3.23,5.74-5.74.36.07.46.41.78.52.62-.77.32-2.02-.61-2.18.13-1.37-.25-2.71-.96-3.57h-1.48c-.81.93-1.38,2.85-1.3,3.4ZM15.9,4.01c-.77-.25-1.78-.25-2.26-.78.33-2.64,2.17-.89,2.26.78Z"/>
      <path class="cls-2" d="M20.17,9.49c-2.31,1.02-4.81,1.86-6.7,3.57,0,.82.04,1.55,0,2,8.95-4.36,17.86-8.77,27.58-12.36.32-.59.81-1.31.88-2.09h-1.54c-4.52,1.71-8.96,3.61-13.26,5.66-2.32,1.11-4.64,2.2-6.96,3.22Z"/>
      <path class="cls-2" d="M58.97,3.74c.42.15.72-.29,1.13-.43,1.4-.5,3.35-.29,4.87-.17-.53.46-1.1.91-1.74,1.31-.59.37-1.5.56-1.74,1.31.85.54,2.15-.21,2.96-.7,1.21-.73,1.38-1.41,2.09-2.61.42-.71.99-1.05.8-1.83h-6.59c-.4.13-.77.3-1.08.52-.71,1-1.03,1.82-.7,2.61Z"/>
      <path class="cls-2" d="M5.37.62c-.02-.07-.07-.1-.17-.09-.07.12-.16.26-.24.43.21-.07.42-.12.64-.17-.03-.08-.1-.13-.22-.17Z"/>
      <path class="cls-2" d="M5.29,7.92c2.01.1,3.34-1.92,2.7-4-.34-1.11-1.66-1.52-2.52-2.17,0-.3.25-.72.14-.96-.22.05-.43.11-.64.17-1.04,1.95-2.83,6.81.33,6.97ZM4.68,3.31c1.29.34,2.2,1.05,2.79,2.09-.43,1.05-2.47,1.41-3.13.35-.17-.88.01-1.81.35-2.44Z"/>
      <path class="cls-2" d="M66.62,14.18c2.92-1.85,5.8-3.7,7.57-6.53.56.26.9.72,1.3,1.13.4-.26.46-.88.52-1.48-.27-.65-1.26-.61-1.48-1.39-.11-.39.13-1.08.09-1.57-.08-.96-.33-1.52-.87-2.09-1.61-.19-3.21,1.89-2.87,3.48.23,1.08,1.72.98,2.61,1.57-2.35,2.43-4.98,4.69-7.65,6.79-.26.21-.7.3-.78.7.6.33,1.11-.32,1.57-.61ZM71.67,4.7c.54-1.79,2.43-.54,2.26,1.04-.79-.31-1.78-.42-2.26-1.04Z"/>
      <path class="cls-2" d="M55.23,12.88c1.02-.11,1.49-2.12,1.57-3.13-.74.28-.42,1.42-1.13,1.57-.69.14-1.21-.89-1.39-1.48-.5-1.6.42-3.32.69-4.35-.02-.07-.07-.1-.17-.09-.78.9-1.56,2.33-1.56,4.18,0,1.34.85,3.43,2,3.31Z"/>
      <path class="cls-2" d="M37.22,14.79c1.16-.06,1.55-1.7,1.56-3.31-.62.33-.46,1.45-1.13,1.74-2.11-.49-1.77-3.85-1.22-5.83h-.26c-1.36,2.03-1.54,6.61,1.05,7.39Z"/>
      <path class="cls-2" d="M46.18,16.97c1.07.96,2.35,1.71,3.74,2.35.13-1.11.81-1.68,1.13-2.61-.42-.39-.95-.69-1.57-1.04-.49-.28-1.51-.59-1.57-1.13-.04-.42.5-.62.61-.78.34-.51.64-1.21.61-1.83-1.01-.64-1.8-1.5-2.96-2-.45.77-.92,1.52-1.22,2.44.75.79,1.73,1.34,2.52,2.09-.56.72-1,1.55-1.3,2.52Z"/>
      <path class="cls-2" d="M25.13,15.23c.32.4.77.71,1.13,1.13.66.78.97,1.9,1.65,2.35,1.13-1.56.35-4.67.78-6.79.75-.1,1.3.73,1.65,1.3.35-.46.4-1.39.26-2.09-.71-1.16-2.15-.72-2.61.26-.65,1.41.27,4.11-.17,5.22-1-2.02-2.49-3.54-4.52-4.52-.23.67-.45,1.35-.52,2.18.49.52,1.59,1.54,2.35.96Z"/>
      <path class="cls-2" d="M64.36,13.92c-.85-.86-2.07-1.35-3.31-1.83-.46.73-.89,1.49-1.22,2.35.87.87,2.2,1.28,3.31,1.91.03-1.18,1.01-1.43,1.22-2.44Z"/>
      <path class="cls-2" d="M74.54,18.35c-.58-.04-1.03-1.14-1.13-1.74-.32-1.95,1.35-3.2,1.04-4.35-1.04.74-2.24,3.51-1.91,5.57.13.85.73,1.99,1.57,2,.94,0,2.39-2.24,2-3.39-.84.36-.46,2-1.57,1.91Z"/>
      <path class="cls-2" d="M19.38,20.88c.75-.07,1.56-2.06,1.48-3.13-.59.34-.41,1.45-1.13,1.65-1.72-.69-1.38-3.48-.61-4.96h-.44c-.49.91-1.17,2.37-1.04,4,.09,1.1.87,2.51,1.74,2.44Z"/>
      <path class="cls-2" d="M10.6,24.63c.23-.03.39-.31.7-.61.64-.63,1.17-1.2,1.04-2.44-.67.45-.53,1.57-1.57,1.48-.65-.05-1.26-1.16-1.39-2.09-.24-1.67.78-3.37.87-4.44-.02-.07-.07-.1-.17-.09-.67,1.08-1.46,2.63-1.57,4.44-.1,1.73.76,3.89,2.09,3.74Z"/>
      <path class="cls-2" d="M19.82,35.59c-.95.13-1.75-1.51-1.57-2.87.15-1.06.98-1.57.87-2.44-.02-.07-.07-.1-.17-.09-1.6,1.52-2.34,6.38.52,7.05.77-.72,2.1-2.13,1.57-3.31-.48.52-.51,1.56-1.22,1.65Z"/>
      <path class="cls-2" d="M48.18,35.32c-.83-.1-1.24-1.72-1.04-2.78.4-.47.86-.88.96-1.65-.19-.2-.3.07-.61,0-.74.82-1.67,3.04-1.04,4.61.56,1.4,2.04,1.7,2.78.35.31-.56.6-1.71.26-2-.37.66-.51,1.58-1.31,1.48Z"/>
      <path class="cls-2" d="M67.06,35.15c-.53.41-1.4.85-2.09,1.04-.97.28-2.83.42-2.87-.61-.02-.37.82-1.08,1.13-1.48.68-.86,1.49-1.83,1.13-3.04-2.32-.11-3.92.38-4,2.87.57-.79,1.8-1.77,3.13-1.22-.72.93-1.84,1.99-2.26,3.22-.51,1.49.66,2.18,2.18,2,1.99-.23,4.25-1.85,4.61-3.48-.41-.01-.62.43-.96.7Z"/>
      <path class="cls-2" d="M34.52,33.76c.31.15.81.56,1.13.17-.11-.56-.48-.85-1.22-.78-.3.69-.8,1.17-.96,2,.68-.13.56-1.06,1.04-1.39Z"/>
      <path class="cls-2" d="M37.57,35.67c.37-.4.76.18,1.22-.09,0-.14,0-.29,0-.43-.81-1-2.48.83-1.48,1.65-.53.23-1.51.46-2,.44.06-.32.44-.32.35-.78-.37-.39-.77.15-1.04,0,.32-.5.77-.86,1.31-1.13.19.06.29.41.52.17.1-.16.22-.3.26-.52-.23.06-.17-.18-.26-.26-1.41.16-1.99,1.14-2.35,2.35-.53.14-1.43.73-1.91.35.69-.74,1.97-2.13.26-2.7-.07.19-.18.34-.17.61.13.28.5.31.52.7-.64.51-1.71,1.44-2.78.96,0-.59.41-.76.7-1.04.26.09.39.31.78.26.28-.59-.21-.95-.78-.96-.57.56-1.31.95-1.3,2.09.39.68,1.36.52,2.09.26-.03.35.22.42.35.61.95.15,1.84-.39,2.7-.61.12.17.27.31.43.43.91-.21,1.96-.37,2.78-.7.78-.31,1.78-.73,2-1.57-.64.34-1.89,1.09-2.18-.09Z"/>
      <path class="cls-2" d="M7.55,35.68c2.25-1.67,3.75-3.45,5.74-5.22,1.6-1.43,3.28-2.75,5.39-3.31,3.33-.88,4.99,1.56,7.05,2.96-.03.72-.74,1.5-.26,2.18.77-.24.71-1.32,1.3-1.74,2.87,1.02,6.16,1.09,9.14.69.42-.06.86.13,1.31.09,1.05-.1,2.35-.47,3.48-.78,3.16-.88,5.8-2.03,8.09-3.48.62,2.07,1.88,3.73,4.09,4,2.4.29,4.2-.65,5.83-1.31,2.89-1.16,5.8-3.03,8.44-4-1.35,4.27,1.58,7.24,5.48,7.05.85-.04,1.63-.46,2.44-.7,1.91-.55,3.79-1.3,5.13-1.91.74,1.94,1.91,5,4.79,4.52,1.5-.25,3.07-3.64,2.52-5.48-.55-1.85-3.51-2.78-5.74-2.09-.59-7.48-1.74-15.38-1.83-22.53.66.52,1.02,1.36,1.83,1.74.49-.67.36-1.04-.26-2.09-.55-1.18-1.03-2.43-1.54-3.65h-2.26c-.09.12-.19.24-.29.35.68,1.05.45,2.18.52,3.65.37,7.96,1.21,15.59,1.83,22.97-3.21,1.75-12.32,4.37-11.75-2,2.16-.8,5.01-.56,7.66-.35.2-1,1.1-1.73,1.13-2.61-2.12-.23-4.02-.51-6.18-.78-1.6-.2-3.28-.15-4.87-.35-1.56-.19-3.09-.56-4.52-.87-1.52-.32-2.94-.92-4.26-1.13-1.07-.17-4.71.37-5.31.87-.16.14-.2.4-.35.7-.35.68-1,1.36-.96,2.26,1.71.32,3.55.51,5.48.61.15-.37.19-.86.43-1.13,2.69.22,5.46,1.09,8.27,1.48-2.53.96-6.25,3.6-9.83,3.92-2.82.25-4.98-1.58-4.87-4.26-1.02.17-1.57.81-2.26,1.31-2.02,1.06-4.48,2.13-6.87,2.52.59-.56,1.64-1.15,2.17-2.18.29-.56.63-1.24.88-2,.2-.6.42-2.27.07-2.96-1.13-1.78-3.31-2.74-5.92-3.04-1.69-.19-3.48.71-4.52,1.39-3.03,1.98-4.89,5.53-6.7,8.18-2.09-1.02-2.79-2.92-5.66-3.04-1-.04-2.1.16-3.05.44-3.31.95-6.53,4.17-8.53,6.27-.51.55-.66.76-1.3,1.31-1.29,1.03-4.24,3.79-6.44,2.09-2.46-1.91.51-8.81.96-8.96.46.12.8.29,1.22.17,1.27-.36,2.16-3.95,2.35-5.31-.92.39-.67,2.51-2.09,2.52-.5,0-1.12-.57-1.39-.96-.9-1.27-1.27-3.56-1.04-5.83.26-2.67,2.01-4.95,2.35-6.44-.89.59-1.45,1.93-2,3.22-.5,1.18-1.13,2.48-1.48,3.74-.89,3.26,0,6.78,1.48,8.53-.79,1.09-1.59,2.8-2.07,4.62v2.79c0,1.92.77,3.68,2.02,4.96,1.9.93,4.25-.64,5.53-1.59ZM86.12,31.92c-2.04.4-2.83-1.16-3.65-2.26,1.69-.07,3.31.69,3.65,2.26ZM30.78,23.58c.68-.77,1.17-1.12,2.09-1.74,1.55-1.05,4.1-2.04,6.61-1.05,1.08.43,3.18,1.6,3.13,2.61-.04.84-3.04,2.35-3.83,2.7-3,1.31-6.64,2.08-10.53,1.48.55-1.17,1.48-2.82,2.52-4Z"/>
    </g>
  </g>
</svg>